<svg id="visual" viewBox="0 0 900 900" width="900" height="900" xmlns="http://www.w3.org/2000/svg" xmlns:xlink="http://www.w3.org/1999/xlink" version="1.1"><rect x="0" y="0" width="900" height="900" fill="#004f8c"></rect><defs><linearGradient id="grad1_0" x1="0%" y1="0%" x2="100%" y2="100%"><stop offset="30%" stop-color="#004f8c" stop-opacity="1"></stop><stop offset="70%" stop-color="#004f8c" stop-opacity="1"></stop></linearGradient></defs><defs><linearGradient id="grad2_0" x1="0%" y1="0%" x2="100%" y2="100%"><stop offset="30%" stop-color="#004f8c" stop-opacity="1"></stop><stop offset="70%" stop-color="#004f8c" stop-opacity="1"></stop></linearGradient></defs><g transform="translate(900, 0)"><path d="M0 477.3C-38.5 438.9 -77.1 400.6 -125.8 387.1C-174.4 373.6 -233.2 384.9 -260.4 358.4C-287.5 331.9 -283 267.5 -316.3 229.8C-349.6 192.2 -420.8 181.3 -453.9 147.5C-487.1 113.7 -482.2 56.8 -477.3 0L0 0Z" fill="#009431"></path></g><g transform="translate(0, 900)"><path d="M0 -477.3C53.7 -477.4 107.4 -477.4 147.1 -452.7C186.8 -428 212.6 -378.5 253.9 -349.5C295.2 -320.5 352 -312 386.1 -280.5C420.3 -249.1 431.8 -194.6 443.2 -144C454.6 -93.4 466 -46.7 477.3 0L0 0Z" fill="#009431"></path></g></svg>