<svg id="visual" viewBox="0 0 900 900" width="900" height="900" xmlns="http://www.w3.org/2000/svg" xmlns:xlink="http://www.w3.org/1999/xlink" version="1.1"><path d="M0 136L82 199L164 190L245 145L327 136L409 91L491 127L573 154L655 145L736 172L818 91L900 181L900 0L818 0L736 0L655 0L573 0L491 0L409 0L327 0L245 0L164 0L82 0L0 0Z" fill="#c4532b"></path><path d="M0 289L82 613L164 397L245 271L327 334L409 370L491 406L573 307L655 343L736 451L818 424L900 442L900 179L818 89L736 170L655 143L573 152L491 125L409 89L327 134L245 143L164 188L82 197L0 134Z" fill="#b4462a"></path><path d="M0 541L82 748L164 685L245 595L327 739L409 559L491 676L573 604L655 649L736 631L818 577L900 586L900 440L818 422L736 449L655 341L573 305L491 404L409 368L327 332L245 269L164 395L82 611L0 287Z" fill="#a43a29"></path><path d="M0 748L82 847L164 838L245 847L327 847L409 811L491 847L573 838L655 847L736 820L818 802L900 811L900 584L818 575L736 629L655 647L573 602L491 674L409 557L327 737L245 593L164 683L82 746L0 539Z" fill="#942e27"></path><path d="M0 901L82 901L164 901L245 901L327 901L409 901L491 901L573 901L655 901L736 901L818 901L900 901L900 809L818 800L736 818L655 845L573 836L491 845L409 809L327 845L245 845L164 836L82 845L0 746Z" fill="#832324"></path></svg>