<svg id="visual" viewBox="0 0 900 900" width="900" height="900" xmlns="http://www.w3.org/2000/svg" xmlns:xlink="http://www.w3.org/1999/xlink" version="1.1"><path d="M0 55L15 56.5C30 58 60 61 90 59.5C120 58 150 52 180 46C210 40 240 34 270 43C300 52 330 76 360 89.5C390 103 420 106 450 107.5C480 109 510 109 540 103C570 97 600 85 630 85C660 85 690 97 720 92.5C750 88 780 67 810 53.5C840 40 870 34 885 31L900 28L900 0L885 0C870 0 840 0 810 0C780 0 750 0 720 0C690 0 660 0 630 0C600 0 570 0 540 0C510 0 480 0 450 0C420 0 390 0 360 0C330 0 300 0 270 0C240 0 210 0 180 0C150 0 120 0 90 0C60 0 30 0 15 0L0 0Z" fill="#fceead"></path><path d="M0 91L15 107.5C30 124 60 157 90 164.5C120 172 150 154 180 131.5C210 109 240 82 270 95.5C300 109 330 163 360 181C390 199 420 181 450 169C480 157 510 151 540 155.5C570 160 600 175 630 184C660 193 690 196 720 187C750 178 780 157 810 137.5C840 118 870 100 885 91L900 82L900 26L885 29C870 32 840 38 810 51.5C780 65 750 86 720 90.5C690 95 660 83 630 83C600 83 570 95 540 101C510 107 480 107 450 105.5C420 104 390 101 360 87.5C330 74 300 50 270 41C240 32 210 38 180 44C150 50 120 56 90 57.5C60 59 30 56 15 54.5L0 53Z" fill="#f4e19e"></path><path d="M0 163L15 172C30 181 60 199 90 209.5C120 220 150 223 180 206.5C210 190 240 154 270 160C300 166 330 214 360 233.5C390 253 420 244 450 232C480 220 510 205 540 206.5C570 208 600 226 630 232C660 238 690 232 720 221.5C750 211 780 196 810 178C840 160 870 139 885 128.5L900 118L900 80L885 89C870 98 840 116 810 135.5C780 155 750 176 720 185C690 194 660 191 630 182C600 173 570 158 540 153.5C510 149 480 155 450 167C420 179 390 197 360 179C330 161 300 107 270 93.5C240 80 210 107 180 129.5C150 152 120 170 90 162.5C60 155 30 122 15 105.5L0 89Z" fill="#ebd490"></path><path d="M0 235L15 238C30 241 60 247 90 259C120 271 150 289 180 283C210 277 240 247 270 245.5C300 244 330 271 360 283C390 295 420 292 450 283C480 274 510 259 540 268C570 277 600 310 630 314.5C660 319 690 295 720 280C750 265 780 259 810 242.5C840 226 870 199 885 185.5L900 172L900 116L885 126.5C870 137 840 158 810 176C780 194 750 209 720 219.5C690 230 660 236 630 230C600 224 570 206 540 204.5C510 203 480 218 450 230C420 242 390 251 360 231.5C330 212 300 164 270 158C240 152 210 188 180 204.5C150 221 120 218 90 207.5C60 197 30 179 15 170L0 161Z" fill="#e3c782"></path><path d="M0 289L15 301C30 313 60 337 90 347.5C120 358 150 355 180 340C210 325 240 298 270 299.5C300 301 330 331 360 343C390 355 420 349 450 347.5C480 346 510 349 540 361C570 373 600 394 630 404.5C660 415 690 415 720 413.5C750 412 780 409 810 382C840 355 870 304 885 278.5L900 253L900 170L885 183.5C870 197 840 224 810 240.5C780 257 750 263 720 278C690 293 660 317 630 312.5C600 308 570 275 540 266C510 257 480 272 450 281C420 290 390 293 360 281C330 269 300 242 270 243.5C240 245 210 275 180 281C150 287 120 269 90 257C60 245 30 239 15 236L0 233Z" fill="#dbb974"></path><path d="M0 406L15 431.5C30 457 60 508 90 511C120 514 150 469 180 446.5C210 424 240 424 270 448C300 472 330 520 360 541C390 562 420 556 450 554.5C480 553 510 556 540 563.5C570 571 600 583 630 566.5C660 550 690 505 720 485.5C750 466 780 472 810 454C840 436 870 394 885 373L900 352L900 251L885 276.5C870 302 840 353 810 380C780 407 750 410 720 411.5C690 413 660 413 630 402.5C600 392 570 371 540 359C510 347 480 344 450 345.5C420 347 390 353 360 341C330 329 300 299 270 297.5C240 296 210 323 180 338C150 353 120 356 90 345.5C60 335 30 311 15 299L0 287Z" fill="#d3ac67"></path><path d="M0 721L15 713.5C30 706 60 691 90 680.5C120 670 150 664 180 658C210 652 240 646 270 646C300 646 330 652 360 658C390 664 420 670 450 668.5C480 667 510 658 540 676C570 694 600 739 630 745C660 751 690 718 720 688C750 658 780 631 810 622C840 613 870 622 885 626.5L900 631L900 350L885 371C870 392 840 434 810 452C780 470 750 464 720 483.5C690 503 660 548 630 564.5C600 581 570 569 540 561.5C510 554 480 551 450 552.5C420 554 390 560 360 539C330 518 300 470 270 446C240 422 210 422 180 444.5C150 467 120 512 90 509C60 506 30 455 15 429.5L0 404Z" fill="#cb9f5b"></path><path d="M0 901L15 901C30 901 60 901 90 901C120 901 150 901 180 901C210 901 240 901 270 901C300 901 330 901 360 901C390 901 420 901 450 901C480 901 510 901 540 901C570 901 600 901 630 901C660 901 690 901 720 901C750 901 780 901 810 901C840 901 870 901 885 901L900 901L900 629L885 624.5C870 620 840 611 810 620C780 629 750 656 720 686C690 716 660 749 630 743C600 737 570 692 540 674C510 656 480 665 450 666.5C420 668 390 662 360 656C330 650 300 644 270 644C240 644 210 650 180 656C150 662 120 668 90 678.5C60 689 30 704 15 711.5L0 719Z" fill="#c3924f"></path></svg>