<svg id="visual" viewBox="0 0 900 600" width="900" height="600" xmlns="http://www.w3.org/2000/svg" xmlns:xlink="http://www.w3.org/1999/xlink" version="1.1"><g stroke-width="1" stroke-linejoin="bevel"><path d="M440 296L444 264.1L400 263.1Z" fill="#f56340" stroke="#f56340"></path><path d="M400 263.1L400 295L440 296Z" fill="#f15644" stroke="#f15644"></path><path d="M400 295L403 334.9L440 296Z" fill="#ed4848" stroke="#ed4848"></path><path d="M444 264.1L405 213.3L400 263.1Z" fill="#fbaf37" stroke="#fbaf37"></path><path d="M444 264.1L442 214.3L405 213.3Z" fill="#fc9635" stroke="#fc9635"></path><path d="M403 334.9L446 345.9L440 296Z" fill="#f15644" stroke="#f15644"></path><path d="M440 296L493 259.1L444 264.1Z" fill="#fbaf37" stroke="#fbaf37"></path><path d="M503 304L493 259.1L440 296Z" fill="#e7394d" stroke="#e7394d"></path><path d="M444 264.1L493 259.1L442 214.3Z" fill="#fa7d39" stroke="#fa7d39"></path><path d="M350 250.1L349 294L400 263.1Z" fill="#fbaf37" stroke="#fbaf37"></path><path d="M400 263.1L349 294L400 295Z" fill="#f56340" stroke="#f56340"></path><path d="M400 295L349 294L403 334.9Z" fill="#e7394d" stroke="#e7394d"></path><path d="M405 213.3L367 224.3L400 263.1Z" fill="#fa7d39" stroke="#fa7d39"></path><path d="M367 224.3L350 250.1L400 263.1Z" fill="#fc9635" stroke="#fc9635"></path><path d="M487 339.9L503 304L440 296Z" fill="#f56340" stroke="#f56340"></path><path d="M349 294L370 350.9L403 334.9Z" fill="#ed4848" stroke="#ed4848"></path><path d="M403 334.9L414 391.7L446 345.9Z" fill="#e7394d" stroke="#e7394d"></path><path d="M446 345.9L487 339.9L440 296Z" fill="#f56340" stroke="#f56340"></path><path d="M442 214.3L409 178.4L405 213.3Z" fill="#fc9635" stroke="#fc9635"></path><path d="M405 213.3L354 174.4L367 224.3Z" fill="#fbaf37" stroke="#fbaf37"></path><path d="M452 168.4L409 178.4L442 214.3Z" fill="#fa7d39" stroke="#fa7d39"></path><path d="M309 267.1L321 304L349 294Z" fill="#fbaf37" stroke="#fbaf37"></path><path d="M349 294L324 340.9L370 350.9Z" fill="#f15644" stroke="#f15644"></path><path d="M539 216.3L503 203.3L493 259.1Z" fill="#fb8a37" stroke="#fb8a37"></path><path d="M493 259.1L503 203.3L442 214.3Z" fill="#fb8a37" stroke="#fb8a37"></path><path d="M311 224.3L309 267.1L350 250.1Z" fill="#fb8a37" stroke="#fb8a37"></path><path d="M350 250.1L309 267.1L349 294Z" fill="#f8703c" stroke="#f8703c"></path><path d="M311 224.3L350 250.1L367 224.3Z" fill="#fa7d39" stroke="#fa7d39"></path><path d="M503 203.3L452 168.4L442 214.3Z" fill="#fabb3a" stroke="#fabb3a"></path><path d="M370 350.9L414 391.7L403 334.9Z" fill="#fc9635" stroke="#fc9635"></path><path d="M446 345.9L457 387.7L487 339.9Z" fill="#e7394d" stroke="#e7394d"></path><path d="M414 391.7L457 387.7L446 345.9Z" fill="#fbaf37" stroke="#fbaf37"></path><path d="M320 380.7L370 381.7L370 350.9Z" fill="#fb8a37" stroke="#fb8a37"></path><path d="M370 350.9L370 381.7L414 391.7Z" fill="#f15644" stroke="#f15644"></path><path d="M277 343.9L324 340.9L321 304Z" fill="#f56340" stroke="#f56340"></path><path d="M321 304L324 340.9L349 294Z" fill="#f8703c" stroke="#f8703c"></path><path d="M544 310L540 256.1L503 304Z" fill="#f56340" stroke="#f56340"></path><path d="M503 304L540 256.1L493 259.1Z" fill="#fabb3a" stroke="#fabb3a"></path><path d="M544 310L503 304L540 337.9Z" fill="#f56340" stroke="#f56340"></path><path d="M354 174.4L311 224.3L367 224.3Z" fill="#fa7d39" stroke="#fa7d39"></path><path d="M367 135.6L354 174.4L409 178.4Z" fill="#fc9635" stroke="#fc9635"></path><path d="M409 178.4L354 174.4L405 213.3Z" fill="#f8703c" stroke="#f8703c"></path><path d="M540 337.9L503 304L487 339.9Z" fill="#fca335" stroke="#fca335"></path><path d="M588 256.1L539 216.3L540 256.1Z" fill="#ed4848" stroke="#ed4848"></path><path d="M540 256.1L539 216.3L493 259.1Z" fill="#fbaf37" stroke="#fbaf37"></path><path d="M503 203.3L500 161.4L452 168.4Z" fill="#f8703c" stroke="#f8703c"></path><path d="M499 385.7L540 337.9L487 339.9Z" fill="#fabb3a" stroke="#fabb3a"></path><path d="M488 421.6L499 385.7L457 387.7Z" fill="#f56340" stroke="#f56340"></path><path d="M457 387.7L499 385.7L487 339.9Z" fill="#fa7d39" stroke="#fa7d39"></path><path d="M535 178.4L500 161.4L503 203.3Z" fill="#e7394d" stroke="#e7394d"></path><path d="M452 168.4L394 133.6L409 178.4Z" fill="#f56340" stroke="#f56340"></path><path d="M263 264.1L278 289L309 267.1Z" fill="#fca335" stroke="#fca335"></path><path d="M309 267.1L278 289L321 304Z" fill="#fc9635" stroke="#fc9635"></path><path d="M277 343.9L320 380.7L324 340.9Z" fill="#fa7d39" stroke="#fa7d39"></path><path d="M324 340.9L320 380.7L370 350.9Z" fill="#fbaf37" stroke="#fbaf37"></path><path d="M407 432.6L447 426.6L414 391.7Z" fill="#fbaf37" stroke="#fbaf37"></path><path d="M456 119.6L394 133.6L452 168.4Z" fill="#fbaf37" stroke="#fbaf37"></path><path d="M539 216.3L535 178.4L503 203.3Z" fill="#fbaf37" stroke="#fbaf37"></path><path d="M407 432.6L414 391.7L370 381.7Z" fill="#f56340" stroke="#f56340"></path><path d="M414 391.7L447 426.6L457 387.7Z" fill="#f8703c" stroke="#f8703c"></path><path d="M394 133.6L367 135.6L409 178.4Z" fill="#fa7d39" stroke="#fa7d39"></path><path d="M354 174.4L307 166.4L311 224.3Z" fill="#fabb3a" stroke="#fabb3a"></path><path d="M350 431.6L407 432.6L370 381.7Z" fill="#f56340" stroke="#f56340"></path><path d="M583 342.9L576 301L544 310Z" fill="#fabb3a" stroke="#fabb3a"></path><path d="M544 310L576 301L540 256.1Z" fill="#fa7d39" stroke="#fa7d39"></path><path d="M539 216.3L589 173.4L535 178.4Z" fill="#fbaf37" stroke="#fbaf37"></path><path d="M583 342.9L544 310L540 337.9Z" fill="#fca335" stroke="#fca335"></path><path d="M532 419.6L488 421.6L484 471.4Z" fill="#f15644" stroke="#f15644"></path><path d="M447 426.6L488 421.6L457 387.7Z" fill="#f56340" stroke="#f56340"></path><path d="M499 385.7L543 395.7L540 337.9Z" fill="#fabb3a" stroke="#fabb3a"></path><path d="M538 127.6L487 132.6L500 161.4Z" fill="#fca335" stroke="#fca335"></path><path d="M500 161.4L487 132.6L452 168.4Z" fill="#fc9635" stroke="#fc9635"></path><path d="M278 289L277 343.9L321 304Z" fill="#f8703c" stroke="#f8703c"></path><path d="M259 212.3L263 264.1L311 224.3Z" fill="#f56340" stroke="#f56340"></path><path d="M311 224.3L263 264.1L309 267.1Z" fill="#fbaf37" stroke="#fbaf37"></path><path d="M278 289L228 291L277 343.9Z" fill="#f8703c" stroke="#f8703c"></path><path d="M305 138.6L307 166.4L354 174.4Z" fill="#fb8a37" stroke="#fb8a37"></path><path d="M487 132.6L456 119.6L452 168.4Z" fill="#fabb3a" stroke="#fabb3a"></path><path d="M394 133.6L366 74.7L367 135.6Z" fill="#f56340" stroke="#f56340"></path><path d="M576 301L588 256.1L540 256.1Z" fill="#f15644" stroke="#f15644"></path><path d="M532 419.6L543 395.7L499 385.7Z" fill="#fb8a37" stroke="#fb8a37"></path><path d="M307 431.6L350 431.6L320 380.7Z" fill="#ed4848" stroke="#ed4848"></path><path d="M320 380.7L350 431.6L370 381.7Z" fill="#e7394d" stroke="#e7394d"></path><path d="M582 380.7L583 342.9L540 337.9Z" fill="#f56340" stroke="#f56340"></path><path d="M576 301L625 299L588 256.1Z" fill="#e7394d" stroke="#e7394d"></path><path d="M305 138.6L279 176.4L307 166.4Z" fill="#ed4848" stroke="#ed4848"></path><path d="M307 166.4L279 176.4L311 224.3Z" fill="#fc9635" stroke="#fc9635"></path><path d="M279 176.4L259 212.3L311 224.3Z" fill="#fbaf37" stroke="#fbaf37"></path><path d="M488 421.6L532 419.6L499 385.7Z" fill="#ed4848" stroke="#ed4848"></path><path d="M543 395.7L582 380.7L540 337.9Z" fill="#fa7d39" stroke="#fa7d39"></path><path d="M484 471.4L488 421.6L447 426.6Z" fill="#fbaf37" stroke="#fbaf37"></path><path d="M315 90.7L305 138.6L367 135.6Z" fill="#fb8a37" stroke="#fb8a37"></path><path d="M367 135.6L305 138.6L354 174.4Z" fill="#fabb3a" stroke="#fabb3a"></path><path d="M625 252.1L593 210.3L588 256.1Z" fill="#ed4848" stroke="#ed4848"></path><path d="M588 256.1L593 210.3L539 216.3Z" fill="#f15644" stroke="#f15644"></path><path d="M535 178.4L538 127.6L500 161.4Z" fill="#f8703c" stroke="#f8703c"></path><path d="M350 431.6L396 460.4L407 432.6Z" fill="#ed4848" stroke="#ed4848"></path><path d="M407 432.6L443 471.4L447 426.6Z" fill="#f8703c" stroke="#f8703c"></path><path d="M587 133.6L538 127.6L535 178.4Z" fill="#fbaf37" stroke="#fbaf37"></path><path d="M484 85.7L441 88.7L456 119.6Z" fill="#fabb3a" stroke="#fabb3a"></path><path d="M484 85.7L456 119.6L487 132.6Z" fill="#f56340" stroke="#f56340"></path><path d="M456 119.6L441 88.7L394 133.6Z" fill="#f15644" stroke="#f15644"></path><path d="M592 417.6L582 380.7L543 395.7Z" fill="#fbaf37" stroke="#fbaf37"></path><path d="M583 342.9L625 299L576 301Z" fill="#fc9635" stroke="#fc9635"></path><path d="M230 347.9L262 383.7L277 343.9Z" fill="#f15644" stroke="#f15644"></path><path d="M277 343.9L262 383.7L320 380.7Z" fill="#fc9635" stroke="#fc9635"></path><path d="M350 431.6L363 464.4L396 460.4Z" fill="#f56340" stroke="#f56340"></path><path d="M228 291L278 289L263 264.1Z" fill="#fa7d39" stroke="#fa7d39"></path><path d="M262 383.7L307 431.6L320 380.7Z" fill="#fb8a37" stroke="#fb8a37"></path><path d="M218 250.1L228 291L263 264.1Z" fill="#fa7d39" stroke="#fa7d39"></path><path d="M396 460.4L443 471.4L407 432.6Z" fill="#f15644" stroke="#f15644"></path><path d="M304 480.4L363 464.4L350 431.6Z" fill="#fbaf37" stroke="#fbaf37"></path><path d="M396 460.4L408 504.3L443 471.4Z" fill="#fb8a37" stroke="#fb8a37"></path><path d="M593 210.3L589 173.4L539 216.3Z" fill="#f8703c" stroke="#f8703c"></path><path d="M398 49.9L414 76.7L460 45.9Z" fill="#fbaf37" stroke="#fbaf37"></path><path d="M441 88.7L414 76.7L394 133.6Z" fill="#ed4848" stroke="#ed4848"></path><path d="M539 89.7L484 85.7L487 132.6Z" fill="#f56340" stroke="#f56340"></path><path d="M443 471.4L484 471.4L447 426.6Z" fill="#f56340" stroke="#f56340"></path><path d="M532 419.6L592 417.6L543 395.7Z" fill="#ed4848" stroke="#ed4848"></path><path d="M228 291L230 347.9L277 343.9Z" fill="#fb8a37" stroke="#fb8a37"></path><path d="M637 344.9L625 299L583 342.9Z" fill="#fbaf37" stroke="#fbaf37"></path><path d="M593 210.3L628 177.4L589 173.4Z" fill="#ed4848" stroke="#ed4848"></path><path d="M625 299L625 252.1L588 256.1Z" fill="#f15644" stroke="#f15644"></path><path d="M215 210.3L218 250.1L259 212.3Z" fill="#fabb3a" stroke="#fabb3a"></path><path d="M259 212.3L218 250.1L263 264.1Z" fill="#fabb3a" stroke="#fabb3a"></path><path d="M228 291L176 308L230 347.9Z" fill="#fbaf37" stroke="#fbaf37"></path><path d="M215 210.3L259 212.3L228 162.4Z" fill="#ed4848" stroke="#ed4848"></path><path d="M414 76.7L366 74.7L394 133.6Z" fill="#fca335" stroke="#fca335"></path><path d="M366 74.7L315 90.7L367 135.6Z" fill="#f56340" stroke="#f56340"></path><path d="M305 138.6L261 120.6L279 176.4Z" fill="#fbaf37" stroke="#fbaf37"></path><path d="M262 383.7L272 432.6L307 431.6Z" fill="#fbaf37" stroke="#fbaf37"></path><path d="M307 431.6L304 480.4L350 431.6Z" fill="#f15644" stroke="#f15644"></path><path d="M231 393.7L272 432.6L262 383.7Z" fill="#f15644" stroke="#f15644"></path><path d="M679 262.1L630 218.3L625 252.1Z" fill="#fabb3a" stroke="#fabb3a"></path><path d="M625 252.1L630 218.3L593 210.3Z" fill="#f56340" stroke="#f56340"></path><path d="M228 162.4L259 212.3L279 176.4Z" fill="#fc9635" stroke="#fc9635"></path><path d="M589 173.4L587 133.6L535 178.4Z" fill="#fa7d39" stroke="#fa7d39"></path><path d="M538 127.6L539 89.7L487 132.6Z" fill="#fca335" stroke="#fca335"></path><path d="M628 177.4L587 133.6L589 173.4Z" fill="#e7394d" stroke="#e7394d"></path><path d="M579 476.4L592 417.6L532 419.6Z" fill="#f56340" stroke="#f56340"></path><path d="M582 380.7L637 344.9L583 342.9Z" fill="#fc9635" stroke="#fc9635"></path><path d="M587 133.6L539 89.7L538 127.6Z" fill="#fabb3a" stroke="#fabb3a"></path><path d="M460 45.9L414 76.7L441 88.7Z" fill="#f56340" stroke="#f56340"></path><path d="M169 387.7L231 393.7L230 347.9Z" fill="#f15644" stroke="#f15644"></path><path d="M230 347.9L231 393.7L262 383.7Z" fill="#fc9635" stroke="#fc9635"></path><path d="M315 90.7L261 120.6L305 138.6Z" fill="#e7394d" stroke="#e7394d"></path><path d="M261 120.6L228 162.4L279 176.4Z" fill="#f15644" stroke="#f15644"></path><path d="M621 394.7L637 344.9L582 380.7Z" fill="#fabb3a" stroke="#fabb3a"></path><path d="M625 299L675 292L625 252.1Z" fill="#fca335" stroke="#fca335"></path><path d="M363 464.4L408 504.3L396 460.4Z" fill="#fca335" stroke="#fca335"></path><path d="M443 471.4L448 506.3L484 471.4Z" fill="#fabb3a" stroke="#fabb3a"></path><path d="M361 522.3L408 504.3L363 464.4Z" fill="#fc9635" stroke="#fc9635"></path><path d="M460 45.9L441 88.7L484 85.7Z" fill="#fabb3a" stroke="#fabb3a"></path><path d="M414 76.7L398 49.9L366 74.7Z" fill="#ed4848" stroke="#ed4848"></path><path d="M366 74.7L312 52.9L315 90.7Z" fill="#fabb3a" stroke="#fabb3a"></path><path d="M683 220.3L628 177.4L630 218.3Z" fill="#fabb3a" stroke="#fabb3a"></path><path d="M630 218.3L628 177.4L593 210.3Z" fill="#fb8a37" stroke="#fb8a37"></path><path d="M408 504.3L448 506.3L443 471.4Z" fill="#fc9635" stroke="#fc9635"></path><path d="M484 471.4L547 480.4L532 419.6Z" fill="#fca335" stroke="#fca335"></path><path d="M592 417.6L621 394.7L582 380.7Z" fill="#fb8a37" stroke="#fb8a37"></path><path d="M175 221.3L189 261.1L218 250.1Z" fill="#fca335" stroke="#fca335"></path><path d="M218 250.1L189 261.1L228 291Z" fill="#f56340" stroke="#f56340"></path><path d="M175 221.3L218 250.1L215 210.3Z" fill="#fb8a37" stroke="#fb8a37"></path><path d="M279 469.4L307 431.6L272 432.6Z" fill="#fbaf37" stroke="#fbaf37"></path><path d="M279 469.4L304 480.4L307 431.6Z" fill="#f15644" stroke="#f15644"></path><path d="M505 43.9L460 45.9L484 85.7Z" fill="#fb8a37" stroke="#fb8a37"></path><path d="M505 505.3L547 480.4L484 471.4Z" fill="#fabb3a" stroke="#fabb3a"></path><path d="M592 417.6L628 435.6L621 394.7Z" fill="#f15644" stroke="#f15644"></path><path d="M231 460.4L279 469.4L272 432.6Z" fill="#f15644" stroke="#f15644"></path><path d="M448 506.3L505 505.3L484 471.4Z" fill="#ed4848" stroke="#ed4848"></path><path d="M189 261.1L176 308L228 291Z" fill="#f15644" stroke="#f15644"></path><path d="M231 393.7L227 438.6L272 432.6Z" fill="#f56340" stroke="#f56340"></path><path d="M539 89.7L505 43.9L484 85.7Z" fill="#fbaf37" stroke="#fbaf37"></path><path d="M544 49.9L505 43.9L539 89.7Z" fill="#fc9635" stroke="#fc9635"></path><path d="M575 75.7L539 89.7L587 133.6Z" fill="#e7394d" stroke="#e7394d"></path><path d="M352 35.9L366 74.7L398 49.9Z" fill="#fbaf37" stroke="#fbaf37"></path><path d="M352 35.9L312 52.9L366 74.7Z" fill="#fa7d39" stroke="#fa7d39"></path><path d="M315 90.7L264 81.7L261 120.6Z" fill="#e7394d" stroke="#e7394d"></path><path d="M261 120.6L216 118.6L228 162.4Z" fill="#fabb3a" stroke="#fabb3a"></path><path d="M312 52.9L264 81.7L315 90.7Z" fill="#f56340" stroke="#f56340"></path><path d="M357 0L352 35.9L398 49.9Z" fill="#ed4848" stroke="#ed4848"></path><path d="M407 0L398 49.9L445 0Z" fill="#ed4848" stroke="#ed4848"></path><path d="M311 523.3L361 522.3L304 480.4Z" fill="#f15644" stroke="#f15644"></path><path d="M304 480.4L361 522.3L363 464.4Z" fill="#fbaf37" stroke="#fbaf37"></path><path d="M408 504.3L405 551.1L448 506.3Z" fill="#fc9635" stroke="#fc9635"></path><path d="M448 506.3L492 548.1L505 505.3Z" fill="#fabb3a" stroke="#fabb3a"></path><path d="M173 438.6L227 438.6L231 393.7Z" fill="#f15644" stroke="#f15644"></path><path d="M267 505.3L311 523.3L304 480.4Z" fill="#fa7d39" stroke="#fa7d39"></path><path d="M184 177.4L175 221.3L215 210.3Z" fill="#e7394d" stroke="#e7394d"></path><path d="M127 257.1L133 305L176 308Z" fill="#fc9635" stroke="#fc9635"></path><path d="M184 177.4L215 210.3L228 162.4Z" fill="#f8703c" stroke="#f8703c"></path><path d="M636 118.6L575 75.7L587 133.6Z" fill="#f15644" stroke="#f15644"></path><path d="M574 507.3L579 476.4L547 480.4Z" fill="#f8703c" stroke="#f8703c"></path><path d="M547 480.4L579 476.4L532 419.6Z" fill="#f8703c" stroke="#f8703c"></path><path d="M683 336.9L637 344.9L678 393.7Z" fill="#fca335" stroke="#fca335"></path><path d="M683 336.9L675 292L637 344.9Z" fill="#fca335" stroke="#fca335"></path><path d="M637 344.9L675 292L625 299Z" fill="#fc9635" stroke="#fc9635"></path><path d="M675 292L679 262.1L625 252.1Z" fill="#e7394d" stroke="#e7394d"></path><path d="M628 177.4L636 118.6L587 133.6Z" fill="#fabb3a" stroke="#fabb3a"></path><path d="M185 126.6L184 177.4L228 162.4Z" fill="#fa7d39" stroke="#fa7d39"></path><path d="M575 75.7L544 49.9L539 89.7Z" fill="#fbaf37" stroke="#fbaf37"></path><path d="M622 470.4L628 435.6L592 417.6Z" fill="#fca335" stroke="#fca335"></path><path d="M220 88.7L216 118.6L261 120.6Z" fill="#fabb3a" stroke="#fabb3a"></path><path d="M142 344.9L172 349.9L176 308Z" fill="#fa7d39" stroke="#fa7d39"></path><path d="M176 308L172 349.9L230 347.9Z" fill="#e7394d" stroke="#e7394d"></path><path d="M187 478.4L231 460.4L227 438.6Z" fill="#fa7d39" stroke="#fa7d39"></path><path d="M227 438.6L231 460.4L272 432.6Z" fill="#f15644" stroke="#f15644"></path><path d="M672 164.4L636 118.6L628 177.4Z" fill="#fa7d39" stroke="#fa7d39"></path><path d="M575 75.7L584 43.9L544 49.9Z" fill="#ed4848" stroke="#ed4848"></path><path d="M679 262.1L683 220.3L630 218.3Z" fill="#fabb3a" stroke="#fabb3a"></path><path d="M678 393.7L637 344.9L621 394.7Z" fill="#fa7d39" stroke="#fa7d39"></path><path d="M675 292L714 255.1L679 262.1Z" fill="#fabb3a" stroke="#fabb3a"></path><path d="M679 262.1L714 255.1L683 220.3Z" fill="#f15644" stroke="#f15644"></path><path d="M267 505.3L304 480.4L279 469.4Z" fill="#f15644" stroke="#f15644"></path><path d="M356 555.1L405 551.1L361 522.3Z" fill="#ed4848" stroke="#ed4848"></path><path d="M361 522.3L405 551.1L408 504.3Z" fill="#f15644" stroke="#f15644"></path><path d="M505 505.3L546 522.3L547 480.4Z" fill="#f8703c" stroke="#f8703c"></path><path d="M540 551.1L546 522.3L505 505.3Z" fill="#e7394d" stroke="#e7394d"></path><path d="M579 476.4L622 470.4L592 417.6Z" fill="#ed4848" stroke="#ed4848"></path><path d="M683 220.3L672 164.4L628 177.4Z" fill="#f8703c" stroke="#f8703c"></path><path d="M231 460.4L267 505.3L279 469.4Z" fill="#fca335" stroke="#fca335"></path><path d="M546 522.3L574 507.3L547 480.4Z" fill="#e7394d" stroke="#e7394d"></path><path d="M135 384.7L169 387.7L172 349.9Z" fill="#fabb3a" stroke="#fabb3a"></path><path d="M172 349.9L169 387.7L230 347.9Z" fill="#fa7d39" stroke="#fa7d39"></path><path d="M231 460.4L220 522.3L267 505.3Z" fill="#fc9635" stroke="#fc9635"></path><path d="M225 31.9L220 88.7L264 81.7Z" fill="#f15644" stroke="#f15644"></path><path d="M264 81.7L220 88.7L261 120.6Z" fill="#ed4848" stroke="#ed4848"></path><path d="M216 118.6L185 126.6L228 162.4Z" fill="#f56340" stroke="#f56340"></path><path d="M274 42.9L264 81.7L312 52.9Z" fill="#fca335" stroke="#fca335"></path><path d="M280 0L274 42.9L312 52.9Z" fill="#fca335" stroke="#fca335"></path><path d="M445 0L460 45.9L497 0Z" fill="#fa7d39" stroke="#fa7d39"></path><path d="M445 0L398 49.9L460 45.9Z" fill="#ed4848" stroke="#ed4848"></path><path d="M352 35.9L321 0L312 52.9Z" fill="#f8703c" stroke="#f8703c"></path><path d="M620 506.3L622 470.4L579 476.4Z" fill="#fb8a37" stroke="#fb8a37"></path><path d="M628 435.6L678 393.7L621 394.7Z" fill="#f56340" stroke="#f56340"></path><path d="M497 0L460 45.9L505 43.9Z" fill="#e7394d" stroke="#e7394d"></path><path d="M452 567.1L492 548.1L448 506.3Z" fill="#fb8a37" stroke="#fb8a37"></path><path d="M180 84.7L185 126.6L216 118.6Z" fill="#fa7d39" stroke="#fa7d39"></path><path d="M184 177.4L144 218.3L175 221.3Z" fill="#f8703c" stroke="#f8703c"></path><path d="M679 433.6L678 393.7L628 435.6Z" fill="#f15644" stroke="#f15644"></path><path d="M130 173.4L144 218.3L184 177.4Z" fill="#fbaf37" stroke="#fbaf37"></path><path d="M175 221.3L127 257.1L189 261.1Z" fill="#fabb3a" stroke="#fabb3a"></path><path d="M640 78.7L584 43.9L575 75.7Z" fill="#ed4848" stroke="#ed4848"></path><path d="M538 0L497 0L505 43.9Z" fill="#fca335" stroke="#fca335"></path><path d="M640 78.7L575 75.7L636 118.6Z" fill="#fa7d39" stroke="#fa7d39"></path><path d="M407 0L357 0L398 49.9Z" fill="#fabb3a" stroke="#fabb3a"></path><path d="M319 562.1L356 555.1L311 523.3Z" fill="#fabb3a" stroke="#fabb3a"></path><path d="M311 523.3L356 555.1L361 522.3Z" fill="#fbaf37" stroke="#fbaf37"></path><path d="M405 551.1L452 567.1L448 506.3Z" fill="#fca335" stroke="#fca335"></path><path d="M538 0L505 43.9L544 49.9Z" fill="#fb8a37" stroke="#fb8a37"></path><path d="M133 305L142 344.9L176 308Z" fill="#f56340" stroke="#f56340"></path><path d="M127 257.1L176 308L189 261.1Z" fill="#f56340" stroke="#f56340"></path><path d="M412 600L452 567.1L405 551.1Z" fill="#fc9635" stroke="#fc9635"></path><path d="M728 305L714 255.1L675 292Z" fill="#e7394d" stroke="#e7394d"></path><path d="M683 220.3L721 174.4L672 164.4Z" fill="#f15644" stroke="#f15644"></path><path d="M728 305L675 292L683 336.9Z" fill="#fabb3a" stroke="#fabb3a"></path><path d="M357 0L321 0L352 35.9Z" fill="#fb8a37" stroke="#fb8a37"></path><path d="M181 43.9L180 84.7L220 88.7Z" fill="#fa7d39" stroke="#fa7d39"></path><path d="M672 78.7L640 78.7L636 118.6Z" fill="#fca335" stroke="#fca335"></path><path d="M674 123.6L636 118.6L672 164.4Z" fill="#fca335" stroke="#fca335"></path><path d="M144 218.3L127 257.1L175 221.3Z" fill="#fb8a37" stroke="#fb8a37"></path><path d="M730 135.6L674 123.6L672 164.4Z" fill="#ed4848" stroke="#ed4848"></path><path d="M130 429.6L173 438.6L169 387.7Z" fill="#f8703c" stroke="#f8703c"></path><path d="M169 387.7L173 438.6L231 393.7Z" fill="#fa7d39" stroke="#fa7d39"></path><path d="M505 600L540 551.1L492 548.1Z" fill="#f15644" stroke="#f15644"></path><path d="M492 548.1L540 551.1L505 505.3Z" fill="#ed4848" stroke="#ed4848"></path><path d="M546 522.3L587 558.1L574 507.3Z" fill="#fbaf37" stroke="#fbaf37"></path><path d="M574 507.3L620 506.3L579 476.4Z" fill="#fca335" stroke="#fca335"></path><path d="M584 43.9L538 0L544 49.9Z" fill="#fb8a37" stroke="#fb8a37"></path><path d="M591 0L538 0L584 43.9Z" fill="#f15644" stroke="#f15644"></path><path d="M680 480.4L679 433.6L628 435.6Z" fill="#fb8a37" stroke="#fb8a37"></path><path d="M720 388.7L720 335.9L683 336.9Z" fill="#f56340" stroke="#f56340"></path><path d="M680 480.4L628 435.6L622 470.4Z" fill="#f15644" stroke="#f15644"></path><path d="M274 566.1L319 562.1L311 523.3Z" fill="#f56340" stroke="#f56340"></path><path d="M354 600L412 600L405 551.1Z" fill="#f15644" stroke="#f15644"></path><path d="M274 566.1L311 523.3L267 505.3Z" fill="#ed4848" stroke="#ed4848"></path><path d="M587 558.1L620 506.3L574 507.3Z" fill="#fa7d39" stroke="#fa7d39"></path><path d="M714 255.1L718 210.3L683 220.3Z" fill="#fca335" stroke="#fca335"></path><path d="M720 388.7L683 336.9L678 393.7Z" fill="#fbaf37" stroke="#fbaf37"></path><path d="M714 255.1L758 258.1L718 210.3Z" fill="#fabb3a" stroke="#fabb3a"></path><path d="M142 344.9L135 384.7L172 349.9Z" fill="#fb8a37" stroke="#fb8a37"></path><path d="M94 344.9L135 384.7L142 344.9Z" fill="#ed4848" stroke="#ed4848"></path><path d="M130 429.6L135 384.7L100 421.6Z" fill="#fabb3a" stroke="#fabb3a"></path><path d="M720 335.9L728 305L683 336.9Z" fill="#f8703c" stroke="#f8703c"></path><path d="M129 464.4L187 478.4L173 438.6Z" fill="#fa7d39" stroke="#fa7d39"></path><path d="M173 438.6L187 478.4L227 438.6Z" fill="#fca335" stroke="#fca335"></path><path d="M220 88.7L180 84.7L216 118.6Z" fill="#e7394d" stroke="#e7394d"></path><path d="M185 126.6L130 173.4L184 177.4Z" fill="#fabb3a" stroke="#fabb3a"></path><path d="M144 218.3L94 247.1L127 257.1Z" fill="#fca335" stroke="#fca335"></path><path d="M225 31.9L264 81.7L274 42.9Z" fill="#ed4848" stroke="#ed4848"></path><path d="M129 129.6L130 173.4L185 126.6Z" fill="#ed4848" stroke="#ed4848"></path><path d="M321 0L280 0L312 52.9Z" fill="#f15644" stroke="#f15644"></path><path d="M280 0L225 31.9L274 42.9Z" fill="#f15644" stroke="#f15644"></path><path d="M674 46.9L622 33.9L640 78.7Z" fill="#fca335" stroke="#fca335"></path><path d="M640 78.7L622 33.9L584 43.9Z" fill="#ed4848" stroke="#ed4848"></path><path d="M718 210.3L721 174.4L683 220.3Z" fill="#fb8a37" stroke="#fb8a37"></path><path d="M674 123.6L672 78.7L636 118.6Z" fill="#f8703c" stroke="#f8703c"></path><path d="M767 224.3L721 174.4L718 210.3Z" fill="#fca335" stroke="#fca335"></path><path d="M187 478.4L220 522.3L231 460.4Z" fill="#fc9635" stroke="#fc9635"></path><path d="M723 427.6L678 393.7L679 433.6Z" fill="#f8703c" stroke="#f8703c"></path><path d="M723 427.6L720 388.7L678 393.7Z" fill="#f15644" stroke="#f15644"></path><path d="M768 294L758 258.1L728 305Z" fill="#ed4848" stroke="#ed4848"></path><path d="M729 79.7L672 78.7L674 123.6Z" fill="#fca335" stroke="#fca335"></path><path d="M354 600L405 551.1L356 555.1Z" fill="#fca335" stroke="#fca335"></path><path d="M452 567.1L505 600L492 548.1Z" fill="#e7394d" stroke="#e7394d"></path><path d="M354 600L356 555.1L319 562.1Z" fill="#f56340" stroke="#f56340"></path><path d="M412 600L447 600L452 567.1Z" fill="#e7394d" stroke="#e7394d"></path><path d="M220 522.3L274 566.1L267 505.3Z" fill="#f15644" stroke="#f15644"></path><path d="M629 0L591 0L622 33.9Z" fill="#e7394d" stroke="#e7394d"></path><path d="M622 33.9L591 0L584 43.9Z" fill="#fabb3a" stroke="#fabb3a"></path><path d="M540 551.1L587 558.1L546 522.3Z" fill="#ed4848" stroke="#ed4848"></path><path d="M620 506.3L680 480.4L622 470.4Z" fill="#fabb3a" stroke="#fabb3a"></path><path d="M576 600L587 558.1L540 551.1Z" fill="#f15644" stroke="#f15644"></path><path d="M138 74.7L129 129.6L180 84.7Z" fill="#fabb3a" stroke="#fabb3a"></path><path d="M180 84.7L129 129.6L185 126.6Z" fill="#f8703c" stroke="#f8703c"></path><path d="M89 218.3L94 247.1L144 218.3Z" fill="#fb8a37" stroke="#fb8a37"></path><path d="M684 507.3L680 480.4L620 506.3Z" fill="#ed4848" stroke="#ed4848"></path><path d="M94 344.9L142 344.9L133 305Z" fill="#fb8a37" stroke="#fb8a37"></path><path d="M135 384.7L130 429.6L169 387.7Z" fill="#fc9635" stroke="#fc9635"></path><path d="M185 556.1L219 551.1L220 522.3Z" fill="#fca335" stroke="#fca335"></path><path d="M89 218.3L144 218.3L130 173.4Z" fill="#fca335" stroke="#fca335"></path><path d="M127 257.1L87 293L133 305Z" fill="#fca335" stroke="#fca335"></path><path d="M311 600L354 600L319 562.1Z" fill="#fca335" stroke="#fca335"></path><path d="M447 600L505 600L452 567.1Z" fill="#f56340" stroke="#f56340"></path><path d="M87 293L94 344.9L133 305Z" fill="#f15644" stroke="#f15644"></path><path d="M94 247.1L87 293L127 257.1Z" fill="#fb8a37" stroke="#fb8a37"></path><path d="M214 0L181 43.9L225 31.9Z" fill="#f56340" stroke="#f56340"></path><path d="M225 31.9L181 43.9L220 88.7Z" fill="#fabb3a" stroke="#fabb3a"></path><path d="M725 471.4L723 427.6L679 433.6Z" fill="#fb8a37" stroke="#fb8a37"></path><path d="M756 344.9L728 305L720 335.9Z" fill="#f15644" stroke="#f15644"></path><path d="M756 344.9L720 335.9L720 388.7Z" fill="#fbaf37" stroke="#fbaf37"></path><path d="M728 305L758 258.1L714 255.1Z" fill="#fc9635" stroke="#fc9635"></path><path d="M99 174.4L89 218.3L130 173.4Z" fill="#fabb3a" stroke="#fabb3a"></path><path d="M94 247.1L47 264.1L87 293Z" fill="#e7394d" stroke="#e7394d"></path><path d="M88 122.6L99 174.4L129 129.6Z" fill="#f15644" stroke="#f15644"></path><path d="M129 129.6L99 174.4L130 173.4Z" fill="#f56340" stroke="#f56340"></path><path d="M721 174.4L730 135.6L672 164.4Z" fill="#fabb3a" stroke="#fabb3a"></path><path d="M774 164.4L730 135.6L721 174.4Z" fill="#fc9635" stroke="#fc9635"></path><path d="M94 344.9L99 384.7L135 384.7Z" fill="#fabb3a" stroke="#fabb3a"></path><path d="M100 421.6L99 384.7L51 385.7Z" fill="#fb8a37" stroke="#fb8a37"></path><path d="M505 600L531 600L540 551.1Z" fill="#fa7d39" stroke="#fa7d39"></path><path d="M220 522.3L219 551.1L274 566.1Z" fill="#f8703c" stroke="#f8703c"></path><path d="M274 566.1L311 600L319 562.1Z" fill="#fca335" stroke="#fca335"></path><path d="M172 520.3L220 522.3L187 478.4Z" fill="#f15644" stroke="#f15644"></path><path d="M266 600L311 600L274 566.1Z" fill="#fa7d39" stroke="#fa7d39"></path><path d="M772 381.7L756 344.9L720 388.7Z" fill="#fa7d39" stroke="#fa7d39"></path><path d="M672 78.7L674 46.9L640 78.7Z" fill="#fa7d39" stroke="#fa7d39"></path><path d="M729 79.7L674 46.9L672 78.7Z" fill="#f56340" stroke="#f56340"></path><path d="M674 46.9L629 0L622 33.9Z" fill="#fbaf37" stroke="#fbaf37"></path><path d="M280 0L214 0L225 31.9Z" fill="#f15644" stroke="#f15644"></path><path d="M756 344.9L768 294L728 305Z" fill="#fabb3a" stroke="#fabb3a"></path><path d="M758 258.1L767 224.3L718 210.3Z" fill="#e7394d" stroke="#e7394d"></path><path d="M100 421.6L129 464.4L130 429.6Z" fill="#fca335" stroke="#fca335"></path><path d="M130 429.6L129 464.4L173 438.6Z" fill="#ed4848" stroke="#ed4848"></path><path d="M133 516.3L172 520.3L187 478.4Z" fill="#f15644" stroke="#f15644"></path><path d="M625 565.1L620 506.3L587 558.1Z" fill="#fbaf37" stroke="#fbaf37"></path><path d="M625 565.1L684 507.3L620 506.3Z" fill="#e7394d" stroke="#e7394d"></path><path d="M680 480.4L725 471.4L679 433.6Z" fill="#fabb3a" stroke="#fabb3a"></path><path d="M181 43.9L138 74.7L180 84.7Z" fill="#fb8a37" stroke="#fb8a37"></path><path d="M129 35.9L138 74.7L181 43.9Z" fill="#f15644" stroke="#f15644"></path><path d="M801 255.1L767 224.3L758 258.1Z" fill="#fca335" stroke="#fca335"></path><path d="M576 600L625 565.1L587 558.1Z" fill="#f15644" stroke="#f15644"></path><path d="M99 384.7L100 421.6L135 384.7Z" fill="#e7394d" stroke="#e7394d"></path><path d="M51 385.7L99 384.7L94 344.9Z" fill="#fa7d39" stroke="#fa7d39"></path><path d="M531 600L576 600L540 551.1Z" fill="#fabb3a" stroke="#fabb3a"></path><path d="M222 600L266 600L274 566.1Z" fill="#f8703c" stroke="#f8703c"></path><path d="M222 600L274 566.1L219 551.1Z" fill="#fc9635" stroke="#fc9635"></path><path d="M712 508.3L725 471.4L680 480.4Z" fill="#fbaf37" stroke="#fbaf37"></path><path d="M723 427.6L772 381.7L720 388.7Z" fill="#fca335" stroke="#fca335"></path><path d="M712 508.3L680 480.4L684 507.3Z" fill="#f56340" stroke="#f56340"></path><path d="M763 88.7L729 79.7L730 135.6Z" fill="#f15644" stroke="#f15644"></path><path d="M730 135.6L729 79.7L674 123.6Z" fill="#fa7d39" stroke="#fa7d39"></path><path d="M674 46.9L680 0L629 0Z" fill="#fbaf37" stroke="#fbaf37"></path><path d="M767 437.6L772 381.7L723 427.6Z" fill="#fca335" stroke="#fca335"></path><path d="M756 344.9L804 299L768 294Z" fill="#fca335" stroke="#fca335"></path><path d="M802 203.3L774 164.4L767 224.3Z" fill="#fb8a37" stroke="#fb8a37"></path><path d="M127 560.1L185 556.1L172 520.3Z" fill="#e7394d" stroke="#e7394d"></path><path d="M172 520.3L185 556.1L220 522.3Z" fill="#f56340" stroke="#f56340"></path><path d="M133 516.3L187 478.4L129 464.4Z" fill="#e7394d" stroke="#e7394d"></path><path d="M83 91.7L129 129.6L138 74.7Z" fill="#fa7d39" stroke="#fa7d39"></path><path d="M83 91.7L88 122.6L129 129.6Z" fill="#fc9635" stroke="#fc9635"></path><path d="M44 204.3L47 264.1L89 218.3Z" fill="#fca335" stroke="#fca335"></path><path d="M89 218.3L47 264.1L94 247.1Z" fill="#f56340" stroke="#f56340"></path><path d="M767 224.3L774 164.4L721 174.4Z" fill="#fb8a37" stroke="#fb8a37"></path><path d="M801 255.1L758 258.1L768 294Z" fill="#fa7d39" stroke="#fa7d39"></path><path d="M725 471.4L767 437.6L723 427.6Z" fill="#f15644" stroke="#f15644"></path><path d="M712 548.1L712 508.3L684 507.3Z" fill="#f8703c" stroke="#f8703c"></path><path d="M685 563.1L684 507.3L625 565.1Z" fill="#fb8a37" stroke="#fb8a37"></path><path d="M96 481.4L133 516.3L129 464.4Z" fill="#fb8a37" stroke="#fb8a37"></path><path d="M44 204.3L89 218.3L99 174.4Z" fill="#fabb3a" stroke="#fabb3a"></path><path d="M87 293L47 334.9L94 344.9Z" fill="#f15644" stroke="#f15644"></path><path d="M214 0L169 0L181 43.9Z" fill="#ed4848" stroke="#ed4848"></path><path d="M774 164.4L772 138.6L730 135.6Z" fill="#fa7d39" stroke="#fa7d39"></path><path d="M37 298L47 334.9L87 293Z" fill="#f15644" stroke="#f15644"></path><path d="M100 421.6L96 481.4L129 464.4Z" fill="#fca335" stroke="#fca335"></path><path d="M728 46.9L674 46.9L729 79.7Z" fill="#e7394d" stroke="#e7394d"></path><path d="M710 0L680 0L674 46.9Z" fill="#fca335" stroke="#fca335"></path><path d="M180 600L222 600L185 556.1Z" fill="#f56340" stroke="#f56340"></path><path d="M185 556.1L222 600L219 551.1Z" fill="#f15644" stroke="#f15644"></path><path d="M169 0L129 35.9L181 43.9Z" fill="#f8703c" stroke="#f8703c"></path><path d="M804 299L801 255.1L768 294Z" fill="#f15644" stroke="#f15644"></path><path d="M774 164.4L805 173.4L772 138.6Z" fill="#fb8a37" stroke="#fb8a37"></path><path d="M769 464.4L767 437.6L725 471.4Z" fill="#fc9635" stroke="#fc9635"></path><path d="M820 347.9L804 299L756 344.9Z" fill="#f56340" stroke="#f56340"></path><path d="M820 347.9L756 344.9L772 381.7Z" fill="#ed4848" stroke="#ed4848"></path><path d="M759 37.9L728 46.9L729 79.7Z" fill="#fb8a37" stroke="#fb8a37"></path><path d="M55 465.4L96 481.4L100 421.6Z" fill="#fabb3a" stroke="#fabb3a"></path><path d="M45 176.4L44 204.3L99 174.4Z" fill="#f8703c" stroke="#f8703c"></path><path d="M47 264.1L37 298L87 293Z" fill="#fbaf37" stroke="#fbaf37"></path><path d="M45 176.4L99 174.4L88 122.6Z" fill="#fa7d39" stroke="#fa7d39"></path><path d="M0 305L37 298L0 247.1Z" fill="#fabb3a" stroke="#fabb3a"></path><path d="M47 334.9L51 385.7L94 344.9Z" fill="#fb8a37" stroke="#fb8a37"></path><path d="M0 380.7L51 385.7L47 334.9Z" fill="#fa7d39" stroke="#fa7d39"></path><path d="M98 32.9L83 91.7L138 74.7Z" fill="#fc9635" stroke="#fc9635"></path><path d="M805 173.4L850 165.4L816 121.6Z" fill="#f8703c" stroke="#f8703c"></path><path d="M801 255.1L802 203.3L767 224.3Z" fill="#f8703c" stroke="#f8703c"></path><path d="M639 600L685 563.1L625 565.1Z" fill="#f56340" stroke="#f56340"></path><path d="M775 520.3L769 464.4L725 471.4Z" fill="#f15644" stroke="#f15644"></path><path d="M576 600L639 600L625 565.1Z" fill="#fa7d39" stroke="#fa7d39"></path><path d="M35 138.6L45 176.4L88 122.6Z" fill="#fca335" stroke="#fca335"></path><path d="M0 247.1L37 298L47 264.1Z" fill="#fca335" stroke="#fca335"></path><path d="M816 121.6L763 88.7L772 138.6Z" fill="#fca335" stroke="#fca335"></path><path d="M772 138.6L763 88.7L730 135.6Z" fill="#f8703c" stroke="#f8703c"></path><path d="M169 0L144 0L129 35.9Z" fill="#ed4848" stroke="#ed4848"></path><path d="M129 35.9L98 32.9L138 74.7Z" fill="#f56340" stroke="#f56340"></path><path d="M775 520.3L725 471.4L712 508.3Z" fill="#fc9635" stroke="#fc9635"></path><path d="M805 424.6L803 388.7L772 381.7Z" fill="#fabb3a" stroke="#fabb3a"></path><path d="M729 600L712 548.1L685 563.1Z" fill="#fabb3a" stroke="#fabb3a"></path><path d="M685 563.1L712 548.1L684 507.3Z" fill="#f56340" stroke="#f56340"></path><path d="M805 424.6L772 381.7L767 437.6Z" fill="#f56340" stroke="#f56340"></path><path d="M850 206.3L802 203.3L801 255.1Z" fill="#f15644" stroke="#f15644"></path><path d="M802 203.3L805 173.4L774 164.4Z" fill="#f15644" stroke="#f15644"></path><path d="M0 434.6L53 430.6L51 385.7Z" fill="#fabb3a" stroke="#fabb3a"></path><path d="M51 385.7L53 430.6L100 421.6Z" fill="#f56340" stroke="#f56340"></path><path d="M728 46.9L710 0L674 46.9Z" fill="#e7394d" stroke="#e7394d"></path><path d="M759 37.9L710 0L728 46.9Z" fill="#fb8a37" stroke="#fb8a37"></path><path d="M127 560.1L172 520.3L133 516.3Z" fill="#ed4848" stroke="#ed4848"></path><path d="M127 560.1L180 600L185 556.1Z" fill="#fc9635" stroke="#fc9635"></path><path d="M127 560.1L133 516.3L92 549.1Z" fill="#fabb3a" stroke="#fabb3a"></path><path d="M803 388.7L820 347.9L772 381.7Z" fill="#f15644" stroke="#f15644"></path><path d="M857 260.1L850 206.3L801 255.1Z" fill="#fbaf37" stroke="#fbaf37"></path><path d="M93 0L98 32.9L129 35.9Z" fill="#fbaf37" stroke="#fbaf37"></path><path d="M45 95.7L35 138.6L88 122.6Z" fill="#fa7d39" stroke="#fa7d39"></path><path d="M81 523.3L133 516.3L96 481.4Z" fill="#fc9635" stroke="#fc9635"></path><path d="M801 462.4L805 424.6L767 437.6Z" fill="#fb8a37" stroke="#fb8a37"></path><path d="M862 374.7L845 348.9L820 347.9Z" fill="#fa7d39" stroke="#fa7d39"></path><path d="M801 462.4L767 437.6L769 464.4Z" fill="#fbaf37" stroke="#fbaf37"></path><path d="M639 600L676 600L685 563.1Z" fill="#fabb3a" stroke="#fabb3a"></path><path d="M775 520.3L801 462.4L769 464.4Z" fill="#fa7d39" stroke="#fa7d39"></path><path d="M45 95.7L88 122.6L83 91.7Z" fill="#e7394d" stroke="#e7394d"></path><path d="M0 211.3L0 247.1L44 204.3Z" fill="#fbaf37" stroke="#fbaf37"></path><path d="M0 434.6L55 465.4L53 430.6Z" fill="#fbaf37" stroke="#fbaf37"></path><path d="M53 430.6L55 465.4L100 421.6Z" fill="#fca335" stroke="#fca335"></path><path d="M814 49.9L759 37.9L763 88.7Z" fill="#fca335" stroke="#fca335"></path><path d="M763 88.7L759 37.9L729 79.7Z" fill="#fb8a37" stroke="#fb8a37"></path><path d="M53 47.9L45 95.7L83 91.7Z" fill="#fc9635" stroke="#fc9635"></path><path d="M55 465.4L81 523.3L96 481.4Z" fill="#ed4848" stroke="#ed4848"></path><path d="M775 520.3L712 508.3L757 550.1Z" fill="#f56340" stroke="#f56340"></path><path d="M862 374.7L820 347.9L803 388.7Z" fill="#f56340" stroke="#f56340"></path><path d="M0 247.1L47 264.1L44 204.3Z" fill="#fbaf37" stroke="#fbaf37"></path><path d="M37 298L0 305L47 334.9Z" fill="#f8703c" stroke="#f8703c"></path><path d="M44 204.3L45 176.4L0 177.4Z" fill="#f8703c" stroke="#f8703c"></path><path d="M0 211.3L44 204.3L0 177.4Z" fill="#f15644" stroke="#f15644"></path><path d="M805 173.4L816 121.6L772 138.6Z" fill="#fca335" stroke="#fca335"></path><path d="M850 206.3L805 173.4L802 203.3Z" fill="#fb8a37" stroke="#fb8a37"></path><path d="M0 305L0 341.9L47 334.9Z" fill="#fca335" stroke="#fca335"></path><path d="M0 177.4L45 176.4L35 138.6Z" fill="#ed4848" stroke="#ed4848"></path><path d="M81 523.3L92 549.1L133 516.3Z" fill="#fa7d39" stroke="#fa7d39"></path><path d="M127 560.1L127 600L180 600Z" fill="#fb8a37" stroke="#fb8a37"></path><path d="M98 600L92 549.1L44 600Z" fill="#e7394d" stroke="#e7394d"></path><path d="M34 521.3L81 523.3L55 465.4Z" fill="#ed4848" stroke="#ed4848"></path><path d="M757 550.1L712 508.3L712 548.1Z" fill="#f56340" stroke="#f56340"></path><path d="M862 374.7L803 388.7L863 431.6Z" fill="#fb8a37" stroke="#fb8a37"></path><path d="M820 347.9L845 348.9L804 299Z" fill="#fc9635" stroke="#fc9635"></path><path d="M144 0L93 0L129 35.9Z" fill="#fca335" stroke="#fca335"></path><path d="M98 32.9L53 47.9L83 91.7Z" fill="#fbaf37" stroke="#fbaf37"></path><path d="M729 600L757 550.1L712 548.1Z" fill="#f15644" stroke="#f15644"></path><path d="M0 129.6L0 177.4L35 138.6Z" fill="#fc9635" stroke="#fc9635"></path><path d="M0 129.6L35 138.6L45 95.7Z" fill="#f8703c" stroke="#f8703c"></path><path d="M0 341.9L0 380.7L47 334.9Z" fill="#fa7d39" stroke="#fa7d39"></path><path d="M857 260.1L801 255.1L804 299Z" fill="#ed4848" stroke="#ed4848"></path><path d="M54 0L53 47.9L98 32.9Z" fill="#fb8a37" stroke="#fb8a37"></path><path d="M865 295L857 260.1L804 299Z" fill="#fb8a37" stroke="#fb8a37"></path><path d="M98 600L127 600L127 560.1Z" fill="#fbaf37" stroke="#fbaf37"></path><path d="M900 167.4L850 165.4L850 206.3Z" fill="#f15644" stroke="#f15644"></path><path d="M850 206.3L850 165.4L805 173.4Z" fill="#fbaf37" stroke="#fbaf37"></path><path d="M806 0L767 0L759 37.9Z" fill="#fb8a37" stroke="#fb8a37"></path><path d="M759 37.9L767 0L710 0Z" fill="#fb8a37" stroke="#fb8a37"></path><path d="M820 79.7L763 88.7L816 121.6Z" fill="#fa7d39" stroke="#fa7d39"></path><path d="M845 348.9L865 295L804 299Z" fill="#ed4848" stroke="#ed4848"></path><path d="M857 260.1L900 223.3L850 206.3Z" fill="#fbaf37" stroke="#fbaf37"></path><path d="M857 87.7L820 79.7L816 121.6Z" fill="#f56340" stroke="#f56340"></path><path d="M676 600L729 600L685 563.1Z" fill="#fc9635" stroke="#fc9635"></path><path d="M800 561.1L812 513.3L775 520.3Z" fill="#f8703c" stroke="#f8703c"></path><path d="M0 83.7L0 129.6L45 95.7Z" fill="#fb8a37" stroke="#fb8a37"></path><path d="M0 380.7L0 434.6L51 385.7Z" fill="#fabb3a" stroke="#fabb3a"></path><path d="M92 549.1L98 600L127 560.1Z" fill="#e7394d" stroke="#e7394d"></path><path d="M863 431.6L803 388.7L805 424.6Z" fill="#fbaf37" stroke="#fbaf37"></path><path d="M900 346.9L900 293L865 295Z" fill="#f8703c" stroke="#f8703c"></path><path d="M863 431.6L805 424.6L849 471.4Z" fill="#ed4848" stroke="#ed4848"></path><path d="M812 513.3L801 462.4L775 520.3Z" fill="#fb8a37" stroke="#fb8a37"></path><path d="M846 36.9L814 49.9L820 79.7Z" fill="#fc9635" stroke="#fc9635"></path><path d="M820 79.7L814 49.9L763 88.7Z" fill="#fb8a37" stroke="#fb8a37"></path><path d="M850 165.4L850 127.6L816 121.6Z" fill="#fc9635" stroke="#fc9635"></path><path d="M857 87.7L850 127.6L900 122.6Z" fill="#fca335" stroke="#fca335"></path><path d="M800 561.1L775 520.3L757 550.1Z" fill="#fc9635" stroke="#fc9635"></path><path d="M38 564.1L92 549.1L81 523.3Z" fill="#e7394d" stroke="#e7394d"></path><path d="M0 475.4L34 521.3L55 465.4Z" fill="#fa7d39" stroke="#fa7d39"></path><path d="M93 0L54 0L98 32.9Z" fill="#f15644" stroke="#f15644"></path><path d="M53 47.9L0 83.7L45 95.7Z" fill="#f8703c" stroke="#f8703c"></path><path d="M0 37.9L0 83.7L53 47.9Z" fill="#fabb3a" stroke="#fabb3a"></path><path d="M0 434.6L0 475.4L55 465.4Z" fill="#fb8a37" stroke="#fb8a37"></path><path d="M849 471.4L805 424.6L801 462.4Z" fill="#fb8a37" stroke="#fb8a37"></path><path d="M900 293L900 263.1L865 295Z" fill="#fa7d39" stroke="#fa7d39"></path><path d="M812 513.3L849 471.4L801 462.4Z" fill="#fa7d39" stroke="#fa7d39"></path><path d="M772 600L800 561.1L757 550.1Z" fill="#f56340" stroke="#f56340"></path><path d="M812 513.3L865 507.3L849 471.4Z" fill="#fca335" stroke="#fca335"></path><path d="M846 36.9L806 0L814 49.9Z" fill="#fb8a37" stroke="#fb8a37"></path><path d="M814 49.9L806 0L759 37.9Z" fill="#f56340" stroke="#f56340"></path><path d="M900 167.4L850 127.6L850 165.4Z" fill="#fb8a37" stroke="#fb8a37"></path><path d="M850 127.6L857 87.7L816 121.6Z" fill="#fa7d39" stroke="#fa7d39"></path><path d="M729 600L772 600L757 550.1Z" fill="#fc9635" stroke="#fc9635"></path><path d="M865 295L845 348.9L900 346.9Z" fill="#fabb3a" stroke="#fabb3a"></path><path d="M865 295L900 263.1L857 260.1Z" fill="#fca335" stroke="#fca335"></path><path d="M900 346.9L845 348.9L862 374.7Z" fill="#f15644" stroke="#f15644"></path><path d="M0 550.1L38 564.1L34 521.3Z" fill="#ed4848" stroke="#ed4848"></path><path d="M34 521.3L38 564.1L81 523.3Z" fill="#ed4848" stroke="#ed4848"></path><path d="M900 263.1L900 223.3L857 260.1Z" fill="#fc9635" stroke="#fc9635"></path><path d="M900 390.7L900 346.9L862 374.7Z" fill="#fabb3a" stroke="#fabb3a"></path><path d="M900 390.7L862 374.7L863 431.6Z" fill="#fca335" stroke="#fca335"></path><path d="M54 0L0 37.9L53 47.9Z" fill="#fabb3a" stroke="#fabb3a"></path><path d="M0 475.4L0 517.3L34 521.3Z" fill="#fbaf37" stroke="#fbaf37"></path><path d="M900 39.9L846 36.9L857 87.7Z" fill="#fa7d39" stroke="#fa7d39"></path><path d="M857 87.7L846 36.9L820 79.7Z" fill="#ed4848" stroke="#ed4848"></path><path d="M900 223.3L900 167.4L850 206.3Z" fill="#f15644" stroke="#f15644"></path><path d="M900 418.6L900 390.7L863 431.6Z" fill="#f15644" stroke="#f15644"></path><path d="M900 418.6L863 431.6L900 468.4Z" fill="#fca335" stroke="#fca335"></path><path d="M38 564.1L44 600L92 549.1Z" fill="#e7394d" stroke="#e7394d"></path><path d="M0 600L44 600L38 564.1Z" fill="#ed4848" stroke="#ed4848"></path><path d="M900 468.4L863 431.6L849 471.4Z" fill="#fb8a37" stroke="#fb8a37"></path><path d="M846 554.1L812 513.3L800 561.1Z" fill="#f56340" stroke="#f56340"></path><path d="M846 554.1L865 507.3L812 513.3Z" fill="#ed4848" stroke="#ed4848"></path><path d="M0 517.3L0 550.1L34 521.3Z" fill="#f56340" stroke="#f56340"></path><path d="M900 167.4L900 122.6L850 127.6Z" fill="#fca335" stroke="#fca335"></path><path d="M54 0L0 0L0 37.9Z" fill="#fa7d39" stroke="#fa7d39"></path><path d="M814 600L846 554.1L800 561.1Z" fill="#e7394d" stroke="#e7394d"></path><path d="M772 600L814 600L800 561.1Z" fill="#fca335" stroke="#fca335"></path><path d="M900 122.6L900 87.7L857 87.7Z" fill="#fc9635" stroke="#fc9635"></path><path d="M900 514.3L900 468.4L865 507.3Z" fill="#f56340" stroke="#f56340"></path><path d="M865 507.3L900 468.4L849 471.4Z" fill="#f15644" stroke="#f15644"></path><path d="M900 39.9L859 0L846 36.9Z" fill="#fb8a37" stroke="#fb8a37"></path><path d="M846 36.9L859 0L806 0Z" fill="#fa7d39" stroke="#fa7d39"></path><path d="M0 550.1L0 600L38 564.1Z" fill="#fbaf37" stroke="#fbaf37"></path><path d="M814 600L846 600L846 554.1Z" fill="#fabb3a" stroke="#fabb3a"></path><path d="M846 554.1L900 514.3L865 507.3Z" fill="#ed4848" stroke="#ed4848"></path><path d="M900 566.1L900 514.3L846 554.1Z" fill="#f56340" stroke="#f56340"></path><path d="M900 87.7L900 39.9L857 87.7Z" fill="#f8703c" stroke="#f8703c"></path><path d="M900 39.9L900 0L859 0Z" fill="#fabb3a" stroke="#fabb3a"></path><path d="M846 600L900 566.1L846 554.1Z" fill="#fa7d39" stroke="#fa7d39"></path><path d="M846 600L900 600L900 566.1Z" fill="#fc9635" stroke="#fc9635"></path></g></svg>